<svg width="145" height="46" viewBox="0 0 145 46" fill="none" xmlns="http://www.w3.org/2000/svg">
<path d="M4.03125 10.7969C3.03125 10.7969 2.53125 10.2187 2.53125 9.0625C2.53125 7.9375 3.03125 7.375 4.03125 7.375H16.5938C17.2812 7.375 17.7812 7.64062 18.0938 8.17188C18.4062 8.70313 18.5312 9.26563 18.4688 9.85938C18.1875 12.3281 17.6094 14.75 16.7344 17.125H22.5469V7.28125C22.5469 6.40625 22.4375 5.84375 22.2188 5.59375C22.0312 5.3125 21.6094 5.07812 20.9531 4.89062C20.2969 4.70312 19.7812 4.51562 19.4062 4.32812C19.0625 4.10938 18.8906 3.79687 18.8906 3.39062C18.8906 2.60938 19.4375 2.21875 20.5312 2.21875H24.5625C25.9062 2.21875 26.5781 2.92188 26.5781 4.32812V37.75C26.5781 40.7188 25.5469 42.2031 23.4844 42.2031H22.5469V20.5469H15.9844C15.7656 20.5469 15.5625 20.5156 15.375 20.4531C14.8438 21.5781 14.25 22.6719 13.5938 23.7344C10.9062 28.2031 7.67188 31.6719 3.89062 34.1406C2.79688 34.8281 2 34.8594 1.5 34.2344C1.03125 33.5781 1.21875 32.9219 2.0625 32.2656C5.375 29.5156 8.03125 26.1875 10.0312 22.2812C10.2812 21.75 10.5156 21.2344 10.7344 20.7344H3.75C2.6875 20.7344 2.15625 20.1562 2.15625 19C2.15625 17.875 2.67188 17.3125 3.70312 17.3125H12.1875C12.9688 15.125 13.5 12.9531 13.7812 10.7969H4.03125ZM28.875 0.203125H32.9531C34.3594 0.203125 35.0625 0.859375 35.0625 2.17188V40.6562C35.0625 43.5938 34 45.0625 31.875 45.0625H30.9375V5.3125C30.9375 4.40625 30.8281 3.8125 30.6094 3.53125C30.4219 3.25 29.9844 3.03125 29.2969 2.875C28.6094 2.71875 28.0781 2.5625 27.7031 2.40625C27.3594 2.21875 27.1875 1.90625 27.1875 1.46875C27.1875 0.625 27.75 0.203125 28.875 0.203125ZM54.3187 27.25H41.5687C39.85 27.25 38.9906 26.2188 38.9906 24.1562V19.1875C38.9906 18.5312 38.8656 18.0781 38.6156 17.8281C38.3656 17.5469 38.0531 17.3125 37.6781 17.125C37.3969 17.0312 37.1469 16.9062 36.9281 16.75C36.7094 16.5625 36.6 16.2656 36.6 15.8594C36.6 15.0469 37.0219 14.6406 37.8656 14.6406H48.6469V9.0625H39.0844C38.0844 9.0625 37.5844 8.48437 37.5844 7.32812C37.5844 6.20312 38.0844 5.64062 39.0844 5.64062H51.0375C52.1312 5.64062 52.6781 6.34375 52.6781 7.75V15.4375C52.6781 17.125 52.0531 17.9688 50.8031 17.9688H43.0219V22.6562C43.0219 23.4688 43.3812 23.875 44.1 23.875H54.3656C55.3656 23.875 55.8656 24.4219 55.8656 25.5156C55.8656 26.6719 55.35 27.25 54.3187 27.25ZM64.5844 0.203125H68.6625C70.0687 0.203125 70.7719 0.875 70.7719 2.21875V29.9219C70.7719 32.8594 69.7094 34.3281 67.5844 34.3281H66.6469V5.3125C66.6469 4.40625 66.5375 3.8125 66.3187 3.53125C66.1312 3.25 65.6937 3.03125 65.0062 2.875C64.3187 2.71875 63.7875 2.5625 63.4125 2.40625C63.0687 2.21875 62.8969 1.90625 62.8969 1.46875C62.8969 0.625 63.4594 0.203125 64.5844 0.203125ZM58.8187 7.28125C58.8187 6.40625 58.7094 5.84375 58.4906 5.59375C58.2719 5.3125 57.85 5.07812 57.225 4.89062C56.5375 4.70312 56.0219 4.51562 55.6781 4.32812C55.3344 4.10938 55.1625 3.79687 55.1625 3.39062C55.1625 2.60938 55.7094 2.21875 56.8031 2.21875H60.8344C62.1781 2.21875 62.85 2.92188 62.85 4.32812V28.8906C62.85 31.8281 61.8031 33.2969 59.7094 33.2969H58.8187V17.4062H54.8812C53.85 17.4062 53.3344 16.8438 53.3344 15.7188C53.3344 14.5938 53.85 14.0312 54.8812 14.0312H58.8187V7.28125ZM70.1625 44.5469H52.7719C49.8031 44.5469 48.3187 43.1562 48.3187 40.375V36.4375C48.3187 35.5312 48.1781 34.9531 47.8969 34.7031C47.6156 34.4219 47.1625 34.1875 46.5375 34C45.9125 33.7812 45.475 33.5938 45.225 33.4375C44.975 33.25 44.85 32.9531 44.85 32.5469C44.85 31.6719 45.3344 31.2344 46.3031 31.2344H50.3812C51.725 31.2344 52.3969 31.9688 52.3969 33.4375V40.0938C52.3969 40.75 52.6937 41.0781 53.2875 41.0781H70.2094C71.2094 41.0781 71.7094 41.6562 71.7094 42.8125C71.7094 43.9688 71.1937 44.5469 70.1625 44.5469ZM87.3094 9.39062C87.0906 11.9219 86.2469 14.75 84.7781 17.875L93.9656 27.1094C94.4969 27.6094 94.7937 28.2188 94.8562 28.9375C94.95 29.6562 94.7625 30.1875 94.2937 30.5312C93.7 31 93.0906 31.1406 92.4656 30.9531C91.8406 30.7656 91.2937 30.3906 90.825 29.8281L83.2781 20.6875C83.2469 20.7812 83.2 20.875 83.1375 20.9688C80.6375 25.3125 77.7781 28.8594 74.5594 31.6094C73.8406 32.2031 73.1844 32.2812 72.5906 31.8438C71.9969 31.4062 72.0437 30.8125 72.7312 30.0625C75.6375 26.8125 77.95 23.2812 79.6687 19.4688C81.4187 15.625 82.4344 12.5156 82.7156 10.1406C82.7469 9.76562 82.5906 9.48438 82.2469 9.29688C81.9344 9.10938 81.4969 8.95312 80.9344 8.82812C80.0906 8.67187 79.6844 8.23438 79.7156 7.51562C79.7469 6.79687 80.2312 6.4375 81.1687 6.4375H84.3562C85.5437 6.4375 86.3406 6.70312 86.7469 7.23438C87.1844 7.76563 87.3719 8.48437 87.3094 9.39062ZM99.5437 5.35938C99.5437 4.45312 99.4187 3.85938 99.1687 3.57812C98.9187 3.29688 98.4812 3.07813 97.8562 2.92188C97.2312 2.76562 96.7156 2.59375 96.3094 2.40625C95.9344 2.21875 95.7469 1.90625 95.7469 1.46875C95.7469 0.625 96.2937 0.203125 97.3875 0.203125H101.606C102.95 0.203125 103.622 0.859375 103.622 2.17188V40.6562C103.622 43.5938 102.591 45.0625 100.528 45.0625H99.5437V5.35938ZM106.519 18.4844C106.519 15.3906 107.519 12.8281 109.519 10.7969C111.55 8.73438 114.019 7.70312 116.925 7.70312C119.863 7.70312 122.347 8.73438 124.378 10.7969C126.409 12.8281 127.425 15.3906 127.425 18.4844C127.425 21.5781 126.409 24.1406 124.378 26.1719C122.347 28.2031 119.863 29.2188 116.925 29.2188C114.019 29.2188 111.55 28.2031 109.519 26.1719C107.519 24.1406 106.519 21.5781 106.519 18.4844ZM110.644 18.4844C110.644 20.6094 111.253 22.3438 112.472 23.6875C113.691 25.0312 115.175 25.7031 116.925 25.7031C118.675 25.7031 120.175 25.0312 121.425 23.6875C122.675 22.3438 123.3 20.6094 123.3 18.4844C123.3 16.3281 122.675 14.5781 121.425 13.2344C120.175 11.8906 118.675 11.2188 116.925 11.2188C115.175 11.2188 113.691 11.8906 112.472 13.2344C111.253 14.5781 110.644 16.3281 110.644 18.4844ZM132.675 5.35938C132.675 4.45312 132.534 3.85938 132.253 3.57812C132.003 3.29688 131.581 3.07813 130.988 2.92188C130.331 2.76562 129.816 2.59375 129.441 2.40625C129.066 2.21875 128.878 1.90625 128.878 1.46875C128.878 0.625 129.425 0.203125 130.519 0.203125H134.784C136.097 0.203125 136.753 0.859375 136.753 2.17188V16.6094H142.613C143.613 16.6094 144.113 17.2031 144.113 18.3906C144.113 19.5469 143.613 20.125 142.613 20.125H136.753V40.7031C136.753 43.5781 135.706 45.0156 133.613 45.0156H132.675V5.35938Z" fill="black"/>
</svg>
